<svg width="257" height="257" viewBox="0 0 257 257" xmlns="http://www.w3.org/2000/svg"><path d="M29.556 29.556q10.5-10.5 29.555-12.667V0Q31.476 2.301 16.89 16.889T0 59.11h16.889q2.166-19.055 12.667-29.555m197 .001q10.5 10.5 12.667 29.555h16.889q-2.301-27.635-16.889-42.222T197.002 0v16.889q19.055 2.166 29.555 12.667m-.001 197q-10.5 10.5-29.555 12.667v16.889q27.635-2.301 42.222-16.889t16.889-42.221h-16.889q-2.166 19.055-12.667 29.555m-197-.001q-10.5-10.5-12.667-29.555H0q2.301 27.635 16.889 42.222t42.221 16.889v-16.889q-19.055-2.166-29.555-12.667M202.308 81.282l-71.1-31.6a7.9 7.9 0 0 0-6.422 0l-71.1 31.6c-.158.071-.269.19-.427.276-.221.111-.458.182-.664.316-.173.119-.308.27-.474.395a6.9 6.9 0 0 0-1.5 1.533c-.159.221-.324.419-.467.64a9 9 0 0 0-.6 1.303c-.071.214-.182.411-.245.625a8 8 0 0 0-.308 2.133v78.998a7.89 7.89 0 0 0 4.693 7.22l71.1 31.6a7.85 7.85 0 0 0 3.207.68 7.9 7.9 0 0 0 3.176-.758l.031.079 71.1-31.6a7.89 7.89 0 0 0 4.693-7.22v-79a7.89 7.89 0 0 0-4.693-7.22m-74.307-15.729 51.65 22.95-51.65 22.948-10.333-4.59-41.31-18.36zm-63.2 96.821v-61.713l55.3 24.577v61.706zm71.1 24.57v-61.708l55.3-24.577v61.714z"/></svg>