<svg width="20" height="20" viewBox="0 0 20 20" fill="none" xmlns="http://www.w3.org/2000/svg"><path d="M10 7c-2.168 0-4 1.832-4 4s1.832 4 4 4 4-1.832 4-4-1.832-4-4-4m0 6c-1.065 0-2-.935-2-2s.935-2 2-2 2 .935 2 2-.935 2-2 2" fill="#fff"/><path d="M18 4h-2.586l-2.707-2.707A1 1 0 0 0 12 1H8a1 1 0 0 0-.707.293L4.586 4H2C.897 4 0 4.897 0 6v11c0 1.103.897 2 2 2h16c1.103 0 2-.897 2-2V6c0-1.103-.897-2-2-2M2 17V6h3c.266 0 .52-.105.707-.293L8.414 3h3.172l2.707 2.707A1 1 0 0 0 15 6h3l.002 11z" fill="#fff"/></svg>