<?xml version="1.0" encoding="UTF-8" standalone="no"?><!DOCTYPE svg PUBLIC "-//W3C//DTD SVG 1.1//EN" "http://www.w3.org/Graphics/SVG/1.1/DTD/svg11.dtd"><svg width="100%" height="100%" viewBox="0 0 64 64" version="1.1" xmlns="http://www.w3.org/2000/svg" xmlns:xlink="http://www.w3.org/1999/xlink" xml:space="preserve" xmlns:serif="http://www.serif.com/" style="fill-rule:evenodd;clip-rule:evenodd;stroke-linejoin:round;stroke-miterlimit:2;"><path d="M30.91,32.562l0.014,-0.112c0,-0.403 0.115,-0.722 0.345,-0.956c0.229,-0.234 0.48,-0.389 0.751,-0.463c0.272,-0.075 0.522,-0.202 0.752,-0.38c0.229,-0.178 0.344,-0.419 0.344,-0.723c0,-0.305 -0.086,-0.541 -0.26,-0.71c-0.173,-0.169 -0.433,-0.253 -0.78,-0.253c-0.346,0 -0.601,0.054 -0.765,0.162c-0.164,0.107 -0.265,0.217 -0.302,0.33l-0.043,0.168c-0.084,0.244 -0.182,0.429 -0.295,0.555c-0.112,0.127 -0.257,0.19 -0.435,0.19c-0.178,0 -0.412,-0.056 -0.703,-0.168c-0.562,-0.216 -0.843,-0.483 -0.843,-0.801c0,-0.141 0.028,-0.284 0.085,-0.429c0.056,-0.145 0.103,-0.267 0.14,-0.365c0.038,-0.099 0.138,-0.27 0.302,-0.513c0.164,-0.244 0.351,-0.457 0.562,-0.639c0.211,-0.183 0.508,-0.352 0.892,-0.506c0.384,-0.155 0.811,-0.232 1.279,-0.232c0.993,-0 1.803,0.318 2.431,0.955c0.627,0.637 0.941,1.377 0.941,2.22c0,0.403 -0.072,0.776 -0.218,1.117c-0.145,0.342 -0.32,0.612 -0.527,0.808c-0.412,0.394 -0.796,0.656 -1.152,0.787l-0.225,0.07c0,0.16 -0.007,0.281 -0.021,0.366c-0.014,0.084 -0.056,0.175 -0.126,0.274c-0.07,0.098 -0.187,0.168 -0.351,0.21c-0.164,0.043 -0.382,0.064 -0.654,0.064c-0.271,-0 -0.489,-0.024 -0.653,-0.071c-0.164,-0.046 -0.279,-0.126 -0.344,-0.238c-0.066,-0.113 -0.106,-0.213 -0.12,-0.302c-0.014,-0.089 -0.021,-0.228 -0.021,-0.415Zm-0.056,2.508c0.075,-0.145 0.208,-0.251 0.4,-0.316c0.193,-0.066 0.495,-0.098 0.907,-0.098c0.412,-0 0.709,0.091 0.892,0.274c0.183,0.182 0.274,0.536 0.274,1.06c-0,0.375 -0.047,0.654 -0.141,0.836c-0.093,0.183 -0.236,0.305 -0.428,0.366c-0.192,0.061 -0.49,0.091 -0.892,0.091c-0.403,0 -0.712,-0.098 -0.928,-0.295c-0.159,-0.159 -0.239,-0.431 -0.239,-0.815l0,-0.225c0,-0.215 0.008,-0.379 0.022,-0.492c0.014,-0.112 0.058,-0.241 0.133,-0.386Z" style="fill:#504f6e;fill-rule:nonzero;"/><path d="M38.282,6.471c-0.228,-1.423 -1.366,-2.526 -2.796,-2.71c-0.004,-0 -0.008,-0.001 -0.012,-0.001c-2.302,-0.267 -4.629,-0.267 -6.93,0.008c-0.003,0.001 -0.005,0.001 -0.008,0.001c-1.423,0.183 -2.556,1.278 -2.789,2.692c-0.092,0.533 -0.19,1.141 -0.285,1.731c-0.197,1.218 -1.021,2.242 -2.167,2.696c-1.006,0.378 -1.968,0.841 -2.894,1.367c-0.003,0.002 -0.005,0.003 -0.007,0.004c-1.065,0.615 -2.375,0.622 -3.446,0.018c-0.012,-0.007 -0.025,-0.014 -0.037,-0.02c-0.517,-0.264 -1.038,-0.558 -1.495,-0.815c-1.254,-0.709 -2.826,-0.507 -3.861,0.496c-0.003,0.003 -0.006,0.006 -0.008,0.008c-1.645,1.634 -3.095,3.453 -4.314,5.424c-0.002,0.002 -0.003,0.005 -0.005,0.007c-0.744,1.226 -0.595,2.795 0.366,3.859c0.359,0.404 0.773,0.859 1.175,1.302c0.83,0.913 1.117,2.195 0.757,3.375c-0.331,1.022 -0.569,2.062 -0.735,3.115c-0.001,0.003 -0.001,0.005 -0.001,0.007c-0.183,1.216 -0.995,2.245 -2.135,2.706c-0.013,0.005 -0.026,0.011 -0.039,0.017c-0.528,0.239 -1.083,0.463 -1.569,0.66c-1.336,0.538 -2.158,1.893 -2.019,3.328c-0,0.004 0,0.008 0.001,0.012c0.252,2.304 0.77,4.572 1.55,6.754c0.001,0.003 0.002,0.005 0.003,0.008c0.495,1.346 1.814,2.208 3.245,2.12c0.54,-0.029 1.154,-0.069 1.751,-0.107c1.231,-0.079 2.413,0.496 3.111,1.513c0.592,0.896 1.257,1.731 1.977,2.517c0.001,0.002 0.003,0.004 0.005,0.005c0.836,0.902 1.134,2.178 0.784,3.357c-0.004,0.013 -0.008,0.026 -0.011,0.04c-0.142,0.563 -0.313,1.135 -0.463,1.638c-0.411,1.381 0.135,2.868 1.343,3.654c0.004,0.002 0.007,0.005 0.011,0.007c1.958,1.239 4.054,2.249 6.247,2.999c0.003,0 0.005,0.001 0.008,0.002c1.361,0.453 2.857,-0.041 3.681,-1.215c0.314,-0.44 0.666,-0.945 1.007,-1.435c0.706,-1.012 1.893,-1.578 3.123,-1.489c1.07,0.095 2.137,0.096 3.201,0.024c0.002,-0.001 0.004,-0.001 0.007,-0.001c1.226,-0.092 2.41,0.47 3.113,1.479c0.008,0.012 0.016,0.023 0.024,0.034c0.352,0.462 0.693,0.953 0.993,1.383c0.822,1.183 2.326,1.683 3.694,1.228c0.004,-0.001 0.008,-0.002 0.012,-0.004c2.19,-0.758 4.286,-1.767 6.239,-3.014c0.003,-0.002 0.005,-0.003 0.007,-0.005c1.203,-0.781 1.749,-2.26 1.345,-3.635c-0.148,-0.52 -0.323,-1.11 -0.494,-1.683c-0.351,-1.183 -0.053,-2.463 0.783,-3.37c0.742,-0.776 1.408,-1.611 2.014,-2.487c0.002,-0.002 0.003,-0.004 0.004,-0.006c0.693,-1.016 1.871,-1.591 3.098,-1.511c0.014,0.001 0.028,0.001 0.042,0.001c0.58,0.014 1.176,0.053 1.7,0.087c1.437,0.094 2.766,-0.77 3.263,-2.123c0.002,-0.004 0.003,-0.008 0.004,-0.011c0.773,-2.186 1.291,-4.453 1.534,-6.758c0,-0.003 0,-0.006 0.001,-0.009c0.138,-1.427 -0.677,-2.776 -2.004,-3.317c-0.499,-0.209 -1.07,-0.44 -1.624,-0.664c-1.143,-0.463 -1.959,-1.493 -2.146,-2.712c-0.145,-1.065 -0.382,-2.106 -0.689,-3.126c-0.001,-0.003 -0.002,-0.005 -0.002,-0.007c-0.363,-1.175 -0.078,-2.454 0.749,-3.364c0.01,-0.011 0.019,-0.021 0.028,-0.032c0.372,-0.445 0.774,-0.887 1.127,-1.275c0.97,-1.065 1.123,-2.643 0.376,-3.875c-0.002,-0.004 -0.005,-0.007 -0.007,-0.011c-1.227,-1.966 -2.677,-3.785 -4.327,-5.412c-0.002,-0.002 -0.004,-0.004 -0.006,-0.006c-1.03,-0.998 -2.593,-1.202 -3.844,-0.502c-0.474,0.26 -1.01,0.563 -1.53,0.856c-1.075,0.605 -2.39,0.6 -3.46,-0.013c-0.922,-0.551 -1.884,-1.014 -2.873,-1.41c-0.002,-0.001 -0.005,-0.002 -0.007,-0.003c-1.145,-0.449 -1.967,-1.47 -2.163,-2.684c-0.002,-0.013 -0.004,-0.027 -0.007,-0.041c-0.116,-0.569 -0.211,-1.159 -0.294,-1.677l-0,0.001Zm-6.272,15.971c5.66,0 10.254,4.595 10.254,10.254c0,5.659 -4.594,10.254 -10.254,10.254c-5.659,-0 -10.253,-4.595 -10.253,-10.254c-0,-5.659 4.594,-10.254 10.253,-10.254Z" style="fill:#2196f3;"/></svg>