<?xml version="1.0" encoding="UTF-8" standalone="no"?><!DOCTYPE svg PUBLIC "-//W3C//DTD SVG 1.1//EN" "http://www.w3.org/Graphics/SVG/1.1/DTD/svg11.dtd"><svg width="100%" height="100%" viewBox="0 0 64 64" version="1.1" xmlns="http://www.w3.org/2000/svg" xmlns:xlink="http://www.w3.org/1999/xlink" xml:space="preserve" xmlns:serif="http://www.serif.com/" style="fill-rule:evenodd;clip-rule:evenodd;stroke-linejoin:round;stroke-miterlimit:2;"><path d="M56.731,53.769c1.03,-0.192 1.987,-0.691 2.738,-1.442c0.98,-0.981 1.531,-2.31 1.531,-3.696c-0,-4.981 -0,-13.21 0,-18.191c0,-1.386 -0.551,-2.716 -1.531,-3.696c-0.98,-0.98 -2.309,-1.531 -3.695,-1.531c-0,0 -15.849,0 -15.849,0c-0.553,0 -1,0.448 -1,1l-0,2.228c-0,0.856 -0.34,1.677 -0.945,2.282c-0.606,0.605 -1.426,0.945 -2.282,0.945c0,-0 -11.623,-0 -11.623,-0c-0.552,-0 -1,0.448 -1,1l0,15.963c0,1.386 0.551,2.715 1.531,3.696c0.98,0.98 2.31,1.53 3.696,1.53c-0,0 17.545,0 17.545,0c1.068,2.152 2.952,4.189 6.257,4.986c1.199,0.326 2.482,0.045 3.435,-0.754c0.956,-0.801 1.457,-2.02 1.342,-3.262c-0.029,-0.343 -0.077,-0.698 -0.15,-1.058Z" style="fill:#2196f3;"/><path d="M43.925,25.213l-4,0c-0.553,0 -1,0.448 -1,1l-0,2.228c-0,0.856 -0.34,1.677 -0.945,2.282c-0.606,0.605 -1.426,0.945 -2.282,0.945c0,-0 -11.623,-0 -11.623,-0c-0.552,-0 -1,0.448 -1,1l0,4l12.623,-0c2.182,-0 4.274,-0.867 5.817,-2.41c1.543,-1.542 2.41,-3.635 2.41,-5.817l-0,-3.228Z" style="fill:#0e89eb;"/><path d="M7.269,33.579c-0.073,0.361 -0.121,0.716 -0.15,1.059c-0.115,1.241 0.386,2.461 1.342,3.262c0.954,0.799 2.238,1.08 3.438,0.753c3.302,-0.796 5.186,-2.833 6.254,-4.985c0,-0 17.545,-0 17.545,-0c1.386,-0 2.716,-0.551 3.696,-1.531c0.98,-0.98 1.531,-2.309 1.531,-3.696c-0,-4.981 -0,-13.209 -0,-18.191c-0,-1.386 -0.551,-2.715 -1.531,-3.695c-0.98,-0.98 -2.31,-1.531 -3.696,-1.531c-6.913,-0 -20.559,-0 -27.472,-0c-1.386,-0 -2.715,0.551 -3.695,1.531c-0.98,0.98 -1.531,2.309 -1.531,3.695c0,4.982 0,13.21 0,18.191c-0,1.387 0.551,2.716 1.531,3.696c0.751,0.752 1.708,1.251 2.738,1.442Z" style="fill:#ebf6fb;"/><path d="M20.866,19.908l0.014,-0.112c0,-0.403 0.115,-0.722 0.345,-0.956c0.229,-0.234 0.48,-0.389 0.751,-0.464c0.272,-0.075 0.523,-0.201 0.752,-0.379c0.23,-0.178 0.344,-0.419 0.344,-0.724c0,-0.304 -0.086,-0.541 -0.26,-0.709c-0.173,-0.169 -0.433,-0.253 -0.779,-0.253c-0.347,-0 -0.602,0.054 -0.766,0.162c-0.164,0.107 -0.265,0.217 -0.302,0.33l-0.042,0.168c-0.085,0.244 -0.183,0.429 -0.296,0.555c-0.112,0.127 -0.257,0.19 -0.435,0.19c-0.178,0 -0.412,-0.056 -0.703,-0.169c-0.562,-0.215 -0.843,-0.482 -0.843,-0.8c0,-0.141 0.028,-0.284 0.085,-0.429c0.056,-0.145 0.103,-0.267 0.14,-0.365c0.038,-0.099 0.138,-0.27 0.302,-0.513c0.164,-0.244 0.351,-0.457 0.562,-0.639c0.211,-0.183 0.508,-0.352 0.892,-0.506c0.385,-0.155 0.811,-0.232 1.279,-0.232c0.993,-0 1.803,0.318 2.431,0.955c0.627,0.637 0.941,1.377 0.941,2.22c0,0.403 -0.072,0.775 -0.218,1.117c-0.145,0.342 -0.32,0.612 -0.526,0.808c-0.413,0.394 -0.797,0.656 -1.153,0.787l-0.224,0.07c-0,0.16 -0.007,0.281 -0.022,0.366c-0.014,0.084 -0.056,0.175 -0.126,0.274c-0.07,0.098 -0.187,0.168 -0.351,0.21c-0.164,0.043 -0.382,0.064 -0.654,0.064c-0.271,-0 -0.489,-0.024 -0.653,-0.071c-0.164,-0.046 -0.279,-0.126 -0.344,-0.239c-0.066,-0.112 -0.106,-0.213 -0.12,-0.302c-0.014,-0.089 -0.021,-0.227 -0.021,-0.414Zm-0.056,2.508c0.075,-0.145 0.209,-0.251 0.401,-0.316c0.192,-0.066 0.494,-0.099 0.906,-0.099c0.412,0 0.709,0.092 0.892,0.274c0.183,0.183 0.274,0.537 0.274,1.061c0,0.375 -0.047,0.654 -0.14,0.836c-0.094,0.183 -0.237,0.305 -0.429,0.366c-0.192,0.06 -0.489,0.091 -0.892,0.091c-0.403,-0 -0.712,-0.098 -0.928,-0.295c-0.159,-0.159 -0.238,-0.431 -0.238,-0.815l-0,-0.225c-0,-0.215 0.007,-0.379 0.021,-0.492c0.014,-0.112 0.058,-0.241 0.133,-0.386Z" style="fill:#504f6e;fill-rule:nonzero;"/><path d="M43.211,42.662c-0.094,-0.183 -0.237,-0.307 -0.429,-0.373c-0.192,-0.065 -0.491,-0.098 -0.899,-0.098c-0.407,-0 -0.702,0.089 -0.885,0.267c-0.183,0.178 -0.274,0.459 -0.274,0.843l0,0.225c0,0.225 0.007,0.391 0.021,0.498c0.014,0.108 0.059,0.237 0.134,0.387c0.149,0.272 0.508,0.407 1.074,0.407c0.567,0 0.942,-0.091 1.124,-0.274c0.183,-0.182 0.274,-0.536 0.274,-1.06c0,-0.366 -0.046,-0.64 -0.14,-0.822Zm-1.883,-1.637c0.178,0.047 0.417,0.07 0.717,0.07c0.3,-0 0.538,-0.023 0.716,-0.07c0.178,-0.047 0.302,-0.131 0.373,-0.253c0.07,-0.122 0.112,-0.23 0.126,-0.323c0.014,-0.094 0.021,-0.239 0.021,-0.436l0,-4.454c0,-0.197 -0.007,-0.344 -0.021,-0.443c-0.014,-0.098 -0.058,-0.208 -0.133,-0.33c-0.075,-0.122 -0.202,-0.208 -0.38,-0.26c-0.178,-0.051 -0.417,-0.077 -0.716,-0.077c-0.3,0 -0.539,0.026 -0.717,0.077c-0.178,0.052 -0.302,0.141 -0.372,0.267c-0.07,0.127 -0.113,0.239 -0.127,0.337c-0.014,0.099 -0.021,0.246 -0.021,0.443l0,4.454c0,0.197 0.007,0.342 0.021,0.436c0.014,0.093 0.059,0.199 0.134,0.316c0.075,0.117 0.201,0.199 0.379,0.246Z" style="fill:#ebf6fb;fill-rule:nonzero;"/><path d="M41.175,34.579c-0.071,0.064 -0.144,0.127 -0.218,0.188c0.051,-0.078 0.123,-0.141 0.218,-0.188Z" style="fill:#b6def0;"/></svg>