<?xml version="1.0" encoding="UTF-8" standalone="no"?><!DOCTYPE svg PUBLIC "-//W3C//DTD SVG 1.1//EN" "http://www.w3.org/Graphics/SVG/1.1/DTD/svg11.dtd"><svg width="100%" height="100%" viewBox="0 0 64 64" version="1.1" xmlns="http://www.w3.org/2000/svg" xmlns:xlink="http://www.w3.org/1999/xlink" xml:space="preserve" xmlns:serif="http://www.serif.com/" style="fill-rule:evenodd;clip-rule:evenodd;stroke-linejoin:round;stroke-miterlimit:2;"><path d="M24.417,29.892c-1.27,2.2 -3.618,3.555 -6.158,3.555c-1.308,0 -1.044,1.552 -1.044,1l-0,25.553c-0,0.552 0.448,1 1,1l25.941,-0c3.281,0 6.08,-2.376 6.614,-5.613c0.771,-4.686 1.955,-8.91 2.817,-14.148c0.32,-1.942 -0.229,-3.926 -1.503,-5.426c-1.274,-1.501 -3.142,-2.366 -5.11,-2.366c-0,0 -5.286,0 -10.069,0c-0.177,0 -0.341,-0.095 -0.43,-0.248c-0.089,-0.154 -0.089,-0.343 -0,-0.497l1.403,-2.43c0.786,-1.361 0.998,-2.977 0.592,-4.494c-0.407,-1.517 -1.399,-2.81 -2.759,-3.595c-0.002,-0.001 -0.003,-0.002 -0.004,-0.003c-1.36,-0.785 -2.977,-0.998 -4.494,-0.591c-1.517,0.406 -2.81,1.399 -3.595,2.759l-3.201,5.544Z" style="fill:#fccaae;"/><path d="M19.215,34.447c-0,-0.552 -0.448,-1 -1,-1l-7.59,0c-1.365,0 -2.472,1.107 -2.472,2.473l-0,22.607c-0,1.366 1.107,2.473 2.472,2.473c2.567,-0 7.59,-0 7.59,-0c0.552,0 1,-0.448 1,-1l-0,-25.553Z" style="fill:#2196f3;"/><path d="M19.338,16.626l-4.259,-4.259c-1.546,-1.546 -4.056,-1.546 -5.602,-0c-1.546,1.546 -1.546,4.056 0,5.601c0,0 4.259,4.259 4.259,4.259c1.546,1.546 4.056,1.546 5.602,0c1.546,-1.546 1.546,-4.056 -0,-5.601Z" style="fill:#ebf6fb;"/><path d="M36.044,12.987l-0,-6.023c-0,-2.186 -1.775,-3.961 -3.961,-3.961c-2.187,0 -3.962,1.775 -3.962,3.961c0,0 0,6.023 0,6.023c0,2.186 1.775,3.961 3.962,3.961c2.186,0 3.961,-1.775 3.961,-3.961Z" style="fill:#ebf6fb;"/><path d="M50.429,22.227l4.259,-4.259c1.546,-1.545 1.546,-4.055 -0,-5.601c-1.546,-1.546 -4.056,-1.546 -5.602,-0c0,-0 -4.259,4.259 -4.259,4.259c-1.546,1.545 -1.546,4.055 0,5.601c1.546,1.546 4.056,1.546 5.602,0Z" style="fill:#ebf6fb;"/></svg>