<svg width="40" height="40" viewBox="0 0 40 40" fill="none" xmlns="http://www.w3.org/2000/svg">
<rect width="40" height="40" rx="4" fill="#417DEA"/>
<path d="M32.4922 9H7.50781C7.22735 9 7 9.22735 7 9.50781V30.4297C7 30.7102 7.22735 30.9375 7.50781 30.9375H21.8666L24.0654 34.7461C24.1328 34.8627 24.2437 34.9478 24.3738 34.9827C24.4171 34.9943 24.4612 35 24.5052 35C24.5936 35 24.6813 34.9769 24.7591 34.932L27.9406 33.0951C28.1834 32.9549 28.2667 32.6443 28.1264 32.4015L27.2812 30.9375H32.4922C32.7726 30.9375 33 30.7102 33 30.4297V9.50781C33 9.22735 32.7726 9 32.4922 9ZM31.9844 10.0156V13.0625H8.01562V10.0156H31.9844ZM24.6911 33.7985L22.0524 29.2282C21.985 29.1115 21.8741 29.0264 21.744 28.9916C21.7008 28.98 21.6566 28.9742 21.6126 28.9742C21.5243 28.9742 21.4366 28.9974 21.3587 29.0423L20.508 29.5334V23.8952L25.3908 26.7143L24.5401 27.2054C24.2973 27.3456 24.214 27.6563 24.3543 27.8991L26.993 32.4695L24.6911 33.7985ZM26.6948 29.9219L25.4877 27.8311L26.6604 27.1541C26.8175 27.0634 26.9143 26.8958 26.9143 26.7143C26.9143 26.5329 26.8175 26.3653 26.6604 26.2746L26.1172 25.9609H29.1406C29.421 25.9609 29.6484 25.7336 29.6484 25.4531V18.5469C29.6484 18.2664 29.421 18.0391 29.1406 18.0391H22.2852C22.0047 18.0391 21.7773 18.2664 21.7773 18.5469C21.7773 18.8273 22.0047 19.0547 22.2852 19.0547H28.6328V24.9453H24.3581L20.2541 22.5759C20.0969 22.4852 19.9034 22.4852 19.7462 22.5759C19.5891 22.6666 19.4923 22.8342 19.4923 23.0156V24.9453H11.3672V19.0547H17.7148C17.9953 19.0547 18.2227 18.8273 18.2227 18.5469C18.2227 18.2664 17.9953 18.0391 17.7148 18.0391H10.8594C10.5789 18.0391 10.3516 18.2664 10.3516 18.5469V25.4531C10.3516 25.7336 10.5789 25.9609 10.8594 25.9609H19.4924V29.9219H8.01562V14.0781H31.9844V29.9219H26.6948Z" fill="white"/>
<path d="M10.25 12.0469C10.3836 12.0469 10.5146 11.9925 10.609 11.8981C10.7035 11.8036 10.7578 11.6726 10.7578 11.5391C10.7578 11.4055 10.7035 11.2745 10.609 11.18C10.5146 11.0856 10.3836 11.0312 10.25 11.0312C10.1164 11.0312 9.98543 11.0856 9.89098 11.18C9.79652 11.2745 9.74219 11.4055 9.74219 11.5391C9.74219 11.6726 9.79652 11.8036 9.89098 11.8981C9.98543 11.9925 10.1164 12.0469 10.25 12.0469V12.0469Z" fill="white"/>
<path d="M12.6875 12.0469C12.8211 12.0469 12.9521 11.9925 13.0465 11.8981C13.141 11.8036 13.1953 11.6726 13.1953 11.5391C13.1953 11.4055 13.141 11.2745 13.0465 11.18C12.9521 11.0856 12.8211 11.0312 12.6875 11.0312C12.5539 11.0312 12.4229 11.0856 12.3285 11.18C12.234 11.2745 12.1797 11.4055 12.1797 11.5391C12.1797 11.6726 12.234 11.8036 12.3285 11.8981C12.4229 11.9925 12.5539 12.0469 12.6875 12.0469Z" fill="white"/>
<path d="M15.125 12.0469C15.2586 12.0469 15.3896 11.9925 15.484 11.8981C15.5785 11.8036 15.6328 11.6726 15.6328 11.5391C15.6328 11.4055 15.5785 11.2745 15.484 11.18C15.3896 11.0856 15.2586 11.0312 15.125 11.0312C14.9914 11.0312 14.8604 11.0856 14.766 11.18C14.6715 11.2745 14.6172 11.4055 14.6172 11.5391C14.6172 11.6726 14.6715 11.8036 14.766 11.8981C14.8604 11.9925 14.9914 12.0469 15.125 12.0469Z" fill="white"/>
<path d="M20 12.0469H29.7246C30.005 12.0469 30.2324 11.8195 30.2324 11.5391C30.2324 11.2586 30.005 11.0312 29.7246 11.0312H20C19.7195 11.0312 19.4922 11.2586 19.4922 11.5391C19.4922 11.8195 19.7195 12.0469 20 12.0469Z" fill="white"/>
<path d="M20 18.0391C19.8664 18.0391 19.7354 18.0934 19.641 18.1879C19.5465 18.2823 19.4922 18.4133 19.4922 18.5469C19.4922 18.6804 19.5465 18.8114 19.641 18.9059C19.7354 19.0004 19.8664 19.0547 20 19.0547C20.1336 19.0547 20.2646 19.0004 20.359 18.9059C20.4534 18.8114 20.5078 18.6804 20.5078 18.5469C20.5078 18.4133 20.4535 18.2823 20.359 18.1879C20.2646 18.0934 20.1336 18.0391 20 18.0391Z" fill="white"/>
</svg>
