<svg width="20" height="20" viewBox="0 0 20 20" fill="none" xmlns="http://www.w3.org/2000/svg"><path d="M9.97313 2.558C8.88353 1.5561 7.45733 1.00005 5.97713 1C5.19366 1.00082 4.4181 1.15656 3.69506 1.45827C2.97203 1.75998 2.31579 2.20169 1.76413 2.758C-0.588875 5.121 -0.587875 8.817 1.76613 11.17L9.09813 18.502C9.26813 18.801 9.59613 18.994 9.97313 18.994C10.1279 18.9925 10.2802 18.9547 10.4178 18.8837C10.5553 18.8126 10.6743 18.7103 10.7651 18.585L18.1801 11.17C20.5341 8.816 20.5341 5.121 18.1781 2.754C17.6267 2.19872 16.971 1.7579 16.2487 1.45688C15.5264 1.15587 14.7517 1.0006 13.9691 1C12.489 1.00024 11.0628 1.55627 9.97313 2.558ZM16.7641 4.168C18.3271 5.739 18.3281 8.193 16.7661 9.756L9.97313 16.549L3.18012 9.756C1.61812 8.193 1.61913 5.739 3.17813 4.172C3.93813 3.416 4.93213 3 5.97713 3C7.02213 3 8.01213 3.416 8.76613 4.17L9.26613 4.67C9.35891 4.76295 9.46912 4.83668 9.59043 4.88699C9.71175 4.9373 9.84179 4.9632 9.97313 4.9632C10.1045 4.9632 10.2345 4.9373 10.3558 4.88699C10.4771 4.83668 10.5873 4.76295 10.6801 4.67L11.1801 4.17C12.6921 2.661 15.2541 2.665 16.7641 4.168Z" fill="white"/></svg>