<svg width="22" height="22" viewBox="0 0 22 22" fill="none" xmlns="http://www.w3.org/2000/svg"><path d="M8.8 10.4285H5.6111L5.6122 10.4189C5.75583 9.73379 6.03694 9.08311 6.4394 8.50415C7.0383 7.64464 7.87836 6.97106 8.8594 6.56373C9.1916 6.42658 9.5381 6.32158 9.8912 6.25194C10.6237 6.10728 11.3785 6.10728 12.111 6.25194C13.1637 6.46204 14.1296 6.96919 14.8885 7.7102L16.4461 6.19729C15.7441 5.51331 14.9135 4.9673 13.9997 4.58903C13.5336 4.39684 13.0491 4.2504 12.5532 4.15187C11.53 3.94938 10.4755 3.94938 9.4523 4.15187C8.95604 4.2508 8.47111 4.3976 8.0047 4.5901C6.63028 5.15808 5.45372 6.10096 4.6167 7.30518C4.05338 8.11719 3.65944 9.02916 3.4573 9.98919C3.4265 10.1338 3.41 10.2817 3.388 10.4285H0L4.4 14.7143L8.8 10.4285ZM13.2 12.5714H16.3889L16.3878 12.58C16.1004 13.9533 15.2693 15.1612 14.0745 15.9422C13.4803 16.3346 12.8122 16.6084 12.1088 16.748C11.3767 16.8926 10.6222 16.8926 9.8901 16.748C9.1868 16.6081 8.51878 16.3343 7.9244 15.9422C7.63248 15.7499 7.35993 15.5311 7.1104 15.2886L5.555 16.8037C6.25736 17.4875 7.08832 18.0331 8.0025 18.4109C8.4689 18.6037 8.9562 18.7505 9.449 18.848C10.4718 19.0507 11.526 19.0507 12.5488 18.848C14.5206 18.4494 16.255 17.3174 17.3833 15.6926C17.9461 14.8812 18.3396 13.97 18.5416 13.0107C18.5713 12.8661 18.5889 12.7182 18.6109 12.5714H22L17.6 8.28557L13.2 12.5714Z" fill="black"/></svg>