<svg width="20" height="20" viewBox="0 0 20 20" fill="none" xmlns="http://www.w3.org/2000/svg"><path d="M6.279 9.088c1.196-1.215 3.284-1.215 4.48 0l.747.759L13 8.33l-.747-.758A5.2 5.2 0 0 0 8.52 6a5.2 5.2 0 0 0-3.734 1.572L2.543 9.847A5.42 5.42 0 0 0 1 13.639c0 1.422.555 2.786 1.543 3.793a5.3 5.3 0 0 0 1.713 1.162c.641.27 1.328.407 2.022.406a5.2 5.2 0 0 0 2.021-.405 5.3 5.3 0 0 0 1.714-1.163l.746-.759-1.493-1.516-.747.758a3.15 3.15 0 0 1-2.24.94c-.84 0-1.647-.338-2.242-.94a3.25 3.25 0 0 1-.926-2.276c0-.853.333-1.671.926-2.275z" fill="#000"/><path d="m9.987 2.568-.747.759 1.494 1.516.747-.758a3.15 3.15 0 0 1 2.24-.94c.84 0 1.647.338 2.242.94.593.604.926 1.423.926 2.276s-.333 1.671-.926 2.276l-2.242 2.275c-1.196 1.215-3.284 1.215-4.48 0l-.747-.759L7 11.67l.747.758A5.2 5.2 0 0 0 11.48 14a5.2 5.2 0 0 0 3.734-1.572l2.242-2.275A5.42 5.42 0 0 0 19 6.361a5.42 5.42 0 0 0-1.543-3.793A5.25 5.25 0 0 0 13.722 1a5.25 5.25 0 0 0-3.735 1.568" fill="#000"/></svg>